<svg width="262" height="48" viewBox="0 0 262 48" fill="none" xmlns="http://www.w3.org/2000/svg">
<path d="M20.556 47.104L15.436 46.784L15.692 42.56L2.572 44.736L1.74 39.616L16.012 37.248L16.524 28.608L2.636 26.176L0.78 22.336L8.396 9.984L10.892 8.768L17.676 9.408L18.06 3.648L23.244 3.968L22.86 9.856L32.652 10.688L32.204 15.808L22.54 14.976L21.964 24.256L30.412 25.664L32.524 28.032L33.1 37.312L30.924 40.064L20.876 41.664L20.556 47.104ZM16.844 23.424L17.42 14.528L11.98 14.016L7.244 21.824L16.844 23.424ZM21.196 36.416L27.724 35.328L27.532 30.464L21.644 29.44L21.196 36.416ZM38.2 43.136L40.44 5.312L44.024 2.496L63.992 6.592L66.296 9.216L68.344 25.152L65.976 28.544L48.824 32.128L47.544 26.304L62.072 23.168L60.6 12.096L46.2 9.152L44.216 43.456L38.2 43.136ZM74.075 39.744L79.579 1.088L85.531 1.856L80.091 40.576L74.075 39.744ZM91.6125 2.496L97.4365 0.896L99.3565 8.064L93.5325 9.664L91.6125 2.496ZM90.0125 38.784L93.1485 13.376L99.1645 14.08L96.0285 39.488L90.0125 38.784ZM121.65 32.128L134.194 35.712L132.594 41.472L117.554 37.248L115.378 34.048L116.978 16.832L104.37 17.728L103.858 11.648L117.554 10.688L118.194 3.968L124.21 4.544L123.698 10.304L138.097 9.28L138.482 15.232L123.122 16.384L121.65 32.128ZM160.087 32.128L172.631 35.712L171.031 41.472L155.991 37.248L153.815 34.048L155.415 16.832L142.807 17.728L142.295 11.648L155.991 10.688L156.631 3.968L162.647 4.544L162.135 10.304L176.535 9.28L176.919 15.232L161.559 16.384L160.087 32.128ZM183.613 2.496L189.437 0.896L191.357 8.064L185.533 9.664L183.613 2.496ZM182.013 38.784L185.149 13.376L191.165 14.08L188.029 39.488L182.013 38.784ZM219.602 15.68L205.97 17.856L203.154 36.736L197.138 35.84L200.338 14.784L202.834 12.224L222.034 9.216L225.554 12.032L226.77 37.184L220.69 37.504L219.602 15.68ZM234.224 37.76L255.216 34.048L254.704 23.04L236.144 26.944L232.56 23.424L236.272 4.288L239.536 1.856L257.264 3.52L260.016 6.336L261.296 36.48L258.8 39.488L235.312 43.648L234.224 37.76ZM239.344 20.16L254.384 16.96L254.064 9.28L241.712 8.064L239.344 20.16Z" fill="#070E20"/>
</svg>
